<mxfile host="app.diagrams.net" modified="2023-03-07T07:45:20.085Z" agent="5.0 (Windows NT 10.0; Win64; x64) AppleWebKit/537.36 (KHTML, like Gecko) Chrome/110.0.0.0 Safari/537.36 Edg/110.0.1587.63" etag="emjpSxgvN3Ng1qbitZF8" version="21.0.2" type="github">
  <diagram id="ckz7CfS8Z_AHKmCLl8eS" name="KMS">
    <mxGraphModel dx="8147" dy="1858" grid="1" gridSize="10" guides="1" tooltips="1" connect="1" arrows="1" fold="1" page="0" pageScale="1" pageWidth="5000" pageHeight="5000" math="0" shadow="0">
      <root>
        <mxCell id="0" />
        <mxCell id="1" parent="0" />
        <mxCell id="w5hhmBtoAbcemXnmcjCZ-20" value="&lt;b&gt;Google &lt;/b&gt;Cloud Platform" style="fillColor=#F6F6F6;strokeColor=none;shadow=0;gradientColor=none;fontSize=14;align=left;spacing=10;fontColor=#717171;9E9E9E;verticalAlign=top;spacingTop=-4;fontStyle=0;spacingLeft=40;html=1;whiteSpace=wrap;" vertex="1" parent="1">
          <mxGeometry x="-4470" y="450" width="320" height="230" as="geometry" />
        </mxCell>
        <mxCell id="w5hhmBtoAbcemXnmcjCZ-21" value="" style="shape=mxgraph.gcp2.google_cloud_platform;fillColor=#F6F6F6;strokeColor=none;shadow=0;gradientColor=none;" vertex="1" parent="w5hhmBtoAbcemXnmcjCZ-20">
          <mxGeometry width="23" height="20" relative="1" as="geometry">
            <mxPoint x="20" y="10" as="offset" />
          </mxGeometry>
        </mxCell>
        <mxCell id="w5hhmBtoAbcemXnmcjCZ-6" value="AWS Seoul &lt;br&gt;Region" style="sketch=0;outlineConnect=0;gradientColor=none;html=1;whiteSpace=wrap;fontSize=12;fontStyle=0;shape=mxgraph.aws4.group;grIcon=mxgraph.aws4.group_region;strokeColor=#8f8f8f;fillColor=none;verticalAlign=top;align=left;spacingLeft=30;fontColor=#B6BABF;" vertex="1" parent="1">
          <mxGeometry x="-4080" y="510" width="390" height="640" as="geometry" />
        </mxCell>
        <mxCell id="sjL_7lDuwugCmZTCmdkM-1" value="" style="rounded=0;whiteSpace=wrap;html=1;" parent="1" vertex="1">
          <mxGeometry x="-4590" y="70" width="420" height="190" as="geometry" />
        </mxCell>
        <mxCell id="sjL_7lDuwugCmZTCmdkM-2" value="Git" style="text;strokeColor=none;align=center;fillColor=none;html=1;verticalAlign=middle;whiteSpace=wrap;rounded=0;fontStyle=1;fontSize=15;" parent="1" vertex="1">
          <mxGeometry x="-4560" y="90" width="60" height="30" as="geometry" />
        </mxCell>
        <mxCell id="sjL_7lDuwugCmZTCmdkM-6" style="edgeStyle=orthogonalEdgeStyle;rounded=0;orthogonalLoop=1;jettySize=auto;html=1;exitX=1;exitY=0.5;exitDx=0;exitDy=0;exitPerimeter=0;entryX=0;entryY=0.5;entryDx=0;entryDy=0;" parent="1" source="sjL_7lDuwugCmZTCmdkM-3" target="sjL_7lDuwugCmZTCmdkM-9" edge="1">
          <mxGeometry relative="1" as="geometry">
            <Array as="points" />
          </mxGeometry>
        </mxCell>
        <mxCell id="sjL_7lDuwugCmZTCmdkM-3" value="" style="shape=cylinder3;whiteSpace=wrap;html=1;boundedLbl=1;backgroundOutline=1;size=15;" parent="1" vertex="1">
          <mxGeometry x="-4560" y="120" width="60" height="80" as="geometry" />
        </mxCell>
        <mxCell id="sjL_7lDuwugCmZTCmdkM-4" value="&lt;ul&gt;&lt;li&gt;AWS Linux&lt;/li&gt;&lt;li&gt;Source Code 관리&lt;/li&gt;&lt;/ul&gt;" style="text;strokeColor=none;align=left;fillColor=none;html=1;verticalAlign=middle;whiteSpace=wrap;rounded=0;" parent="1" vertex="1">
          <mxGeometry x="-4605" y="210" width="150" height="30" as="geometry" />
        </mxCell>
        <mxCell id="sjL_7lDuwugCmZTCmdkM-9" value="&amp;nbsp;Build Server" style="label;whiteSpace=wrap;html=1;image=img/clipart/Gear_128x128.png" parent="1" vertex="1">
          <mxGeometry x="-4346" y="130" width="140" height="60" as="geometry" />
        </mxCell>
        <mxCell id="sjL_7lDuwugCmZTCmdkM-10" value="&lt;ul&gt;&lt;li&gt;AWS Windows&lt;/li&gt;&lt;li&gt;Build&lt;/li&gt;&lt;li&gt;Static/Dynamic Analysis&lt;/li&gt;&lt;/ul&gt;" style="text;strokeColor=none;align=left;fillColor=none;html=1;verticalAlign=middle;whiteSpace=wrap;rounded=0;" parent="1" vertex="1">
          <mxGeometry x="-4371" y="210" width="201" height="30" as="geometry" />
        </mxCell>
        <mxCell id="sjL_7lDuwugCmZTCmdkM-11" style="edgeStyle=orthogonalEdgeStyle;rounded=0;orthogonalLoop=1;jettySize=auto;html=1;exitX=1;exitY=0.5;exitDx=0;exitDy=0;entryX=0;entryY=0.5;entryDx=0;entryDy=0;entryPerimeter=0;" parent="1" source="sjL_7lDuwugCmZTCmdkM-9" target="sjL_7lDuwugCmZTCmdkM-12" edge="1">
          <mxGeometry relative="1" as="geometry">
            <mxPoint x="-4200" y="159.5" as="sourcePoint" />
            <mxPoint x="-4130" y="160" as="targetPoint" />
            <Array as="points" />
          </mxGeometry>
        </mxCell>
        <mxCell id="sjL_7lDuwugCmZTCmdkM-12" value="" style="shape=note;whiteSpace=wrap;html=1;backgroundOutline=1;darkOpacity=0.05;" parent="1" vertex="1">
          <mxGeometry x="-4120" y="125" width="60" height="70" as="geometry" />
        </mxCell>
        <mxCell id="sjL_7lDuwugCmZTCmdkM-13" value="SW" style="text;strokeColor=none;align=center;fillColor=none;html=1;verticalAlign=middle;whiteSpace=wrap;rounded=0;fontStyle=1;fontSize=15;" parent="1" vertex="1">
          <mxGeometry x="-4120" y="90" width="60" height="30" as="geometry" />
        </mxCell>
        <mxCell id="sjL_7lDuwugCmZTCmdkM-14" value="AWS" style="text;strokeColor=none;align=center;fillColor=none;html=1;verticalAlign=middle;whiteSpace=wrap;rounded=0;fontStyle=1;fontSize=15;" parent="1" vertex="1">
          <mxGeometry x="-4230" y="40" width="60" height="30" as="geometry" />
        </mxCell>
        <mxCell id="sjL_7lDuwugCmZTCmdkM-15" value="" style="shape=note;whiteSpace=wrap;html=1;backgroundOutline=1;darkOpacity=0.05;" parent="1" vertex="1">
          <mxGeometry x="-4700" y="110" width="60" height="70" as="geometry" />
        </mxCell>
        <mxCell id="sjL_7lDuwugCmZTCmdkM-17" style="edgeStyle=orthogonalEdgeStyle;rounded=0;orthogonalLoop=1;jettySize=auto;html=1;exitX=0;exitY=0;exitDx=60;exitDy=50;exitPerimeter=0;entryX=0;entryY=0.5;entryDx=0;entryDy=0;entryPerimeter=0;" parent="1" source="sjL_7lDuwugCmZTCmdkM-15" target="sjL_7lDuwugCmZTCmdkM-3" edge="1">
          <mxGeometry relative="1" as="geometry">
            <mxPoint x="-4490" y="170" as="sourcePoint" />
            <mxPoint x="-4570" y="170" as="targetPoint" />
            <Array as="points" />
          </mxGeometry>
        </mxCell>
        <mxCell id="sjL_7lDuwugCmZTCmdkM-18" value="Source Code" style="text;strokeColor=none;align=center;fillColor=none;html=1;verticalAlign=middle;whiteSpace=wrap;rounded=0;fontStyle=1;fontSize=15;" parent="1" vertex="1">
          <mxGeometry x="-4700" y="70" width="60" height="30" as="geometry" />
        </mxCell>
        <mxCell id="sjL_7lDuwugCmZTCmdkM-20" value="OSS SCAN Tool" style="label;whiteSpace=wrap;html=1;image=img/clipart/Gear_128x128.png;fontSize=11;" parent="1" vertex="1">
          <mxGeometry x="-4475" y="70.5" width="155" height="25" as="geometry" />
        </mxCell>
        <mxCell id="sjL_7lDuwugCmZTCmdkM-22" value="SaaS Service - Key Generate" style="label;whiteSpace=wrap;html=1;image=img/clipart/Gear_128x128.png;fontSize=11;" parent="1" vertex="1">
          <mxGeometry x="-4475" y="98" width="170" height="30" as="geometry" />
        </mxCell>
        <mxCell id="w5hhmBtoAbcemXnmcjCZ-5" value="On-Premise" style="sketch=0;outlineConnect=0;gradientColor=none;html=1;whiteSpace=wrap;fontSize=12;fontStyle=0;shape=mxgraph.aws4.group;grIcon=mxgraph.aws4.group_on_premise;strokeColor=#858B94;fillColor=none;verticalAlign=top;align=left;spacingLeft=30;fontColor=#858B94;dashed=0;" vertex="1" parent="1">
          <mxGeometry x="-4875" y="460" width="335" height="170" as="geometry" />
        </mxCell>
        <mxCell id="w5hhmBtoAbcemXnmcjCZ-10" value="" style="group" vertex="1" connectable="0" parent="1">
          <mxGeometry x="-4840" y="506" width="60" height="60" as="geometry" />
        </mxCell>
        <mxCell id="w5hhmBtoAbcemXnmcjCZ-7" value="" style="shape=actor;whiteSpace=wrap;html=1;sketch=1;curveFitting=1;jiggle=2;fillColor=#c7c2c2;" vertex="1" parent="w5hhmBtoAbcemXnmcjCZ-10">
          <mxGeometry width="30" height="51.42857142857142" as="geometry" />
        </mxCell>
        <mxCell id="w5hhmBtoAbcemXnmcjCZ-8" value="" style="shape=actor;whiteSpace=wrap;html=1;sketch=1;curveFitting=1;jiggle=2;fillColor=#c7c2c2;" vertex="1" parent="w5hhmBtoAbcemXnmcjCZ-10">
          <mxGeometry x="15" y="8.571428571428571" width="30" height="51.42857142857142" as="geometry" />
        </mxCell>
        <mxCell id="w5hhmBtoAbcemXnmcjCZ-9" value="" style="shape=actor;whiteSpace=wrap;html=1;sketch=1;curveFitting=1;jiggle=2;fillColor=#c7c2c2;" vertex="1" parent="w5hhmBtoAbcemXnmcjCZ-10">
          <mxGeometry x="30" width="30" height="51.42857142857142" as="geometry" />
        </mxCell>
        <mxCell id="w5hhmBtoAbcemXnmcjCZ-14" value="&lt;b&gt;&lt;font style=&quot;font-size: 15px;&quot;&gt;Users&lt;/font&gt;&lt;/b&gt;" style="text;html=1;strokeColor=none;fillColor=none;align=center;verticalAlign=middle;whiteSpace=wrap;rounded=0;sketch=1;curveFitting=1;jiggle=2;" vertex="1" parent="1">
          <mxGeometry x="-4840" y="565" width="60" height="30" as="geometry" />
        </mxCell>
        <mxCell id="w5hhmBtoAbcemXnmcjCZ-15" value="&lt;font style=&quot;font-size: 15px;&quot;&gt;ATS(TestPresso)&lt;/font&gt;" style="text;strokeColor=none;fillColor=none;html=1;fontSize=15;fontStyle=1;verticalAlign=middle;align=center;fontColor=#000000;" vertex="1" parent="1">
          <mxGeometry x="-4690" y="519.9999999999998" width="145.9" height="40" as="geometry" />
        </mxCell>
        <mxCell id="w5hhmBtoAbcemXnmcjCZ-16" value="" style="sketch=0;points=[[0,0,0],[0.25,0,0],[0.5,0,0],[0.75,0,0],[1,0,0],[0,1,0],[0.25,1,0],[0.5,1,0],[0.75,1,0],[1,1,0],[0,0.25,0],[0,0.5,0],[0,0.75,0],[1,0.25,0],[1,0.5,0],[1,0.75,0]];points=[[0,0,0],[0.25,0,0],[0.5,0,0],[0.75,0,0],[1,0,0],[0,1,0],[0.25,1,0],[0.5,1,0],[0.75,1,0],[1,1,0],[0,0.25,0],[0,0.5,0],[0,0.75,0],[1,0.25,0],[1,0.5,0],[1,0.75,0]];outlineConnect=0;fontColor=#232F3E;gradientColor=#F34482;gradientDirection=north;fillColor=#BC1356;strokeColor=#ffffff;dashed=0;verticalLabelPosition=bottom;verticalAlign=top;align=center;html=1;fontSize=12;fontStyle=0;aspect=fixed;shape=mxgraph.aws4.resourceIcon;resIcon=mxgraph.aws4.well_architect_tool;" vertex="1" parent="1">
          <mxGeometry x="-4720" y="519.9999999999998" width="40" height="40" as="geometry" />
        </mxCell>
        <mxCell id="w5hhmBtoAbcemXnmcjCZ-18" value="" style="endArrow=classic;startArrow=classic;html=1;rounded=0;entryX=0;entryY=0.5;entryDx=0;entryDy=0;entryPerimeter=0;exitX=0.967;exitY=0.657;exitDx=0;exitDy=0;exitPerimeter=0;" edge="1" parent="1" source="w5hhmBtoAbcemXnmcjCZ-9" target="w5hhmBtoAbcemXnmcjCZ-16">
          <mxGeometry width="50" height="50" relative="1" as="geometry">
            <mxPoint x="-4790" y="540" as="sourcePoint" />
            <mxPoint x="-4480" y="480" as="targetPoint" />
          </mxGeometry>
        </mxCell>
        <mxCell id="w5hhmBtoAbcemXnmcjCZ-19" value="" style="shape=image;verticalLabelPosition=bottom;labelBackgroundColor=default;verticalAlign=top;aspect=fixed;imageAspect=0;image=https://awsvideocatalog.com/images/aws/png/PNG%20Light/Networking%20&amp;%20Content%20Delivery/AWS-Direct-Connect.png;" vertex="1" parent="1">
          <mxGeometry x="-4530" y="520" width="40" height="40" as="geometry" />
        </mxCell>
      </root>
    </mxGraphModel>
  </diagram>
</mxfile>
